<svg width="80" height="80" viewBox="0 0 80 80" fill="none" xmlns="http://www.w3.org/2000/svg">
<path d="M40 80C62.0914 80 80 62.0914 80 40C80 17.9086 62.0914 0 40 0C17.9086 0 0 17.9086 0 40C0 62.0914 17.9086 80 40 80Z" fill="#0B632E"/>
<path d="M29.875 50.8906H31.9219V42.7891H29.875V50.8906ZM20.8906 46.8359C20.8906 49.4453 22.9063 51.0313 25.2031 51.0313C26.1172 51.0313 26.8125 50.8203 27.0703 50.7422V48.5703C26.9766 48.6172 26.3125 49 25.3516 49C23.9844 49 23.1094 48.0391 23.1094 46.8359C23.1094 45.6016 24.0234 44.6719 25.3516 44.6719C26.3281 44.6719 26.9844 45.0625 27.0703 45.1094V42.9375C26.875 42.8828 26.1641 42.6484 25.2031 42.6484C22.7188 42.6484 20.8906 44.4219 20.8906 46.8359ZM42.2266 46.8359C42.2266 49.4453 44.2422 51.0313 46.5391 51.0313C47.4453 51.0313 48.1484 50.8203 48.3984 50.7422V48.5703C48.3125 48.6172 47.6406 49 46.6797 49C45.3203 49 44.4375 48.0391 44.4375 46.8359C44.4375 45.6016 45.3516 44.6719 46.6797 44.6719C47.6563 44.6719 48.3125 45.0625 48.3984 45.1094V42.9375C48.2031 42.8828 47.4922 42.6484 46.5391 42.6484C44.0469 42.6484 42.2266 44.4219 42.2266 46.8359ZM52.7188 46.8359C52.7188 45.6641 53.6172 44.7031 54.8359 44.7031C56.0469 44.7031 56.9531 45.6563 56.9531 46.8359C56.9531 48.0156 56.0469 48.9687 54.8359 48.9687C53.6172 48.9766 52.7188 48.0156 52.7188 46.8359ZM50.5547 46.8359C50.5547 49.1563 52.3438 51.0313 54.8281 51.0313C57.3203 51.0313 59.1094 49.1563 59.1094 46.8359C59.1094 44.5234 57.3203 42.6484 54.8281 42.6484C52.3438 42.6484 50.5547 44.5234 50.5547 46.8359ZM34.6641 45.1797C34.6641 46.5234 35.6172 47.1875 36.75 47.5469C36.875 47.5859 37.0625 47.6484 37.1875 47.6875C37.6953 47.8438 38.0938 48.0859 38.0938 48.4922C38.0938 48.9531 37.625 49.25 36.6094 49.25C35.7188 49.25 34.8594 48.9922 34.6797 48.9453V50.8125C34.7813 50.8359 35.7969 51.0313 36.8828 51.0313C38.4453 51.0313 40.2344 50.3516 40.2344 48.3125C40.2344 47.3281 39.6328 46.4141 38.3047 46L37.7422 45.8203C37.4063 45.7109 36.8047 45.5391 36.8047 45.0469C36.8047 44.6562 37.25 44.3828 38.0703 44.3828C38.7734 44.3828 39.6406 44.6172 39.6641 44.6328V42.8984C39.6016 42.8828 38.6641 42.6406 37.6719 42.6406C35.7969 42.6484 34.6641 43.6641 34.6641 45.1797ZM16.6953 34.0859V36.2109C16.6953 36.7734 17.1563 37.2266 17.7109 37.2266C18.2734 37.2266 18.7266 36.7734 18.7266 36.2109V34.0859C18.7266 33.5312 18.2734 33.0703 17.7109 33.0703C17.1484 33.0781 16.6953 33.5312 16.6953 34.0859ZM38.9922 34.0859V36.2109C38.9922 36.7734 39.4453 37.2266 40.0078 37.2266C40.5625 37.2266 41.0156 36.7734 41.0156 36.2109V34.0859C41.0156 33.5312 40.5625 33.0703 40.0078 33.0703C39.4453 33.0781 38.9922 33.5312 38.9922 34.0859ZM61.2813 34.0859V36.2109C61.2813 36.7734 61.7344 37.2266 62.2891 37.2266C62.8438 37.2266 63.2969 36.7734 63.2969 36.2109V34.0859C63.2969 33.5312 62.8438 33.0703 62.2891 33.0703C61.7344 33.0781 61.2813 33.5312 61.2813 34.0859ZM22.2656 31.2969V36.2109C22.2656 36.7734 22.7188 37.2266 23.2813 37.2266C23.8438 37.2266 24.2969 36.7734 24.2969 36.2109V31.2969C24.2969 30.7422 23.8438 30.2813 23.2813 30.2813C22.7188 30.2813 22.2656 30.7422 22.2656 31.2969ZM33.4141 31.2969V36.2109C33.4141 36.7734 33.8672 37.2266 34.4297 37.2266C34.9922 37.2266 35.4453 36.7734 35.4453 36.2109V31.2969C35.4453 30.7422 34.9922 30.2813 34.4297 30.2813C33.875 30.2813 33.4141 30.7422 33.4141 31.2969ZM44.5625 31.2969V36.2109C44.5625 36.7734 45.0156 37.2266 45.5781 37.2266C46.1328 37.2266 46.5938 36.7734 46.5938 36.2109V31.2969C46.5938 30.7422 46.1406 30.2813 45.5781 30.2813C45.0156 30.2813 44.5625 30.7422 44.5625 31.2969ZM55.7031 31.2969V36.2109C55.7031 36.7734 56.1563 37.2266 56.7109 37.2266C57.2813 37.2266 57.7344 36.7734 57.7344 36.2109V31.2969C57.7344 30.7422 57.2813 30.2813 56.7109 30.2813C56.1563 30.2813 55.7031 30.7422 55.7031 31.2969ZM27.8438 27.4766V38.2344C27.8438 38.7969 28.2969 39.25 28.8594 39.25C29.4141 39.25 29.875 38.7969 29.875 38.2344V27.4766C29.875 26.9141 29.4219 26.4609 28.8594 26.4609C28.2969 26.4688 27.8438 26.9219 27.8438 27.4766ZM50.1406 27.4766V38.2344C50.1406 38.7969 50.5938 39.25 51.1484 39.25C51.7109 39.25 52.1563 38.7969 52.1563 38.2344V27.4766C52.1563 26.9141 51.7031 26.4609 51.1484 26.4609C50.5938 26.4688 50.1406 26.9219 50.1406 27.4766Z" fill="#F5EDDF"/>
</svg>
