<svg width="80" height="80" viewBox="0 0 80 80" fill="none" xmlns="http://www.w3.org/2000/svg">
<path d="M0 0H80V80H0V0Z" fill="#0B632E"/>
<rect x="22.3994" y="20.8" width="38.4" height="38.4" fill="white"/>
<path d="M20.2753 17.6697C19.2403 17.9254 18.2867 18.7042 17.8448 19.6457L17.6006 20.1804V61.4429L17.8913 62.024C18.2518 62.7563 18.9263 63.4304 19.624 63.7559L20.159 64H61.4422L62.0236 63.7094C62.7563 63.3491 63.4308 62.6749 63.7564 61.9775L64.0006 61.4429V20.1804L63.7099 19.5992C63.3494 18.8669 62.6749 18.1928 61.9771 17.8673L61.4422 17.6232L41.0332 17.6C29.8111 17.6 20.473 17.6232 20.2753 17.6697ZM41.5565 23.7138C43.1845 24.0974 43.9986 24.388 45.6266 25.1783C50.4295 27.5262 53.8135 31.8733 55.0113 37.22C55.2439 38.2661 55.2788 38.7427 55.2788 40.8116C55.2788 42.6713 55.2323 43.4152 55.0695 44.1824C53.3018 52.4465 46.2546 58.2465 37.9515 58.2465C35.4047 58.2465 33.3929 57.8513 31.2066 56.9214C30.1135 56.4681 28.5552 55.608 27.9039 55.1198L27.6248 54.9106L30.3344 51.6793C31.8229 49.9126 33.1487 48.3319 33.2882 48.1691L33.544 47.8785L34.265 48.2389C36.2536 49.2385 39.0097 49.3315 41.0681 48.4597C42.7775 47.7391 44.4986 46.1699 45.2545 44.624C45.9406 43.2292 46.1848 42.0669 46.1267 40.4745C46.0337 38.1731 45.2196 36.3832 43.5567 34.8024C42.0565 33.3844 40.4633 32.6986 38.4166 32.594C36.9397 32.5126 35.8582 32.6986 34.6837 33.21C34.1836 33.4425 33.7069 33.6517 33.6371 33.6749C33.5673 33.7098 32.1834 32.1523 30.567 30.2228L27.6248 26.7126L27.9039 26.5034C28.4621 26.0617 30.0321 25.19 31.0205 24.7715C32.2997 24.2136 33.4626 23.8649 34.9279 23.5976C36.5443 23.2954 40.0214 23.3651 41.5565 23.7138Z" fill="#0B632E"/>
</svg>
