<svg width="106" height="80" viewBox="0 0 106 80" fill="none" xmlns="http://www.w3.org/2000/svg">
<path fill-rule="evenodd" clip-rule="evenodd" d="M86.8612 50.9183L88.4574 48.9622C89.8775 47.3081 90.8868 45.7109 91.4851 44.1376L103.635 59.1205C105.84 61.9746 105.735 62.5032 102.06 62.5032H100.8C97.1245 62.5032 95.7593 61.7632 93.5541 59.1205L86.8612 50.9183ZM86.8612 30.536L93.5541 22.3338C95.7593 19.6911 97.1245 18.9511 100.8 18.9511H102.06C105.735 18.9511 105.84 19.4797 103.635 22.3338L91.4851 37.3167C90.8868 35.7434 89.8775 34.1462 88.4574 32.4921L86.8612 30.536Z" fill="#0B632E"/>
<path fill-rule="evenodd" clip-rule="evenodd" d="M68.3059 62.5032C64.6308 62.5032 64.5256 61.9746 66.7308 59.1205L79.3319 43.5813C80.2769 42.4186 80.802 41.4671 80.802 40.7271C80.802 39.8814 80.2769 38.9301 79.3319 37.873L66.7308 22.3338C64.5256 19.4797 64.6308 18.9511 68.3059 18.9511H69.5661C73.2413 18.9511 74.6065 19.6911 76.8117 22.3338L86.4724 34.1732C90.5679 38.9301 90.5679 42.5242 86.4724 47.2811L76.8117 59.1205C74.6065 61.7632 73.2413 62.5032 69.5661 62.5032H68.3059Z" fill="#0B632E"/>
<path fill-rule="evenodd" clip-rule="evenodd" d="M0 76.0549C0 79.211 0.783794 80 3.91897 80H4.96393C8.09911 80 8.8829 79.211 8.8829 76.0549V57.7323C11.2343 61.502 15.5016 63.4307 21.6848 63.4307C33.7899 63.4307 39.799 57.0309 39.799 44.3191V36.692C39.799 23.98 33.3545 18.0187 19.8559 18.0187C7.31531 18.0187 0 24.1554 0 36.692V76.0549ZM30.829 44.4944C30.829 51.8585 28.3906 54.9269 19.9431 54.9269C11.3213 54.9269 8.8829 51.7708 8.8829 44.4944V36.9549C8.8829 29.5908 11.4956 26.4347 19.9431 26.4347C28.5647 26.4347 30.829 29.5908 30.829 36.9549V44.4944Z" fill="#0B632E"/>
<path fill-rule="evenodd" clip-rule="evenodd" d="M48.1758 58.4527C48.1758 61.6088 48.9596 62.3978 52.0948 62.3978H53.2268C56.362 62.3978 57.1458 61.6088 57.1458 58.4527V22.8595C57.1458 19.7034 56.362 18.9144 53.2268 18.9144H52.0948C48.9596 18.9144 48.1758 19.7034 48.1758 22.8595V58.4527ZM48.7854 9.44626C50.9626 11.5503 54.446 11.5503 56.5362 9.44626C58.7134 7.25447 58.7134 3.74785 56.5362 1.64384C54.446 -0.547948 50.9626 -0.547948 48.7854 1.64384C46.6082 3.74785 46.6082 7.25447 48.7854 9.44626Z" fill="#0B632E"/>
</svg>
